<?xml version="1.0" encoding="UTF-8" standalone="no"?>
<!-- Created with Inkscape (http://www.inkscape.org/) -->

<svg
   xmlns:dc="http://purl.org/dc/elements/1.1/"
   xmlns:cc="http://creativecommons.org/ns#"
   xmlns:rdf="http://www.w3.org/1999/02/22-rdf-syntax-ns#"
   xmlns:svg="http://www.w3.org/2000/svg"
   xmlns="http://www.w3.org/2000/svg"
   xmlns:sodipodi="http://sodipodi.sourceforge.net/DTD/sodipodi-0.dtd"
   xmlns:inkscape="http://www.inkscape.org/namespaces/inkscape"
   id="svg3390"
   version="1.1"
   inkscape:version="0.91 r13725"
   width="530"
   height="492.5"
   viewBox="0 0 530 492.5"
   sodipodi:docname="0.svg">
  <metadata
     id="metadata3396">
    <rdf:RDF>
      <cc:Work
         rdf:about="">
        <dc:format>image/svg+xml</dc:format>
        <dc:type
           rdf:resource="http://purl.org/dc/dcmitype/StillImage" />
        <dc:title></dc:title>
      </cc:Work>
    </rdf:RDF>
  </metadata>
  <defs
     id="defs3394" />
  <sodipodi:namedview
     pagecolor="#ffffff"
     bordercolor="#666666"
     borderopacity="1"
     objecttolerance="10"
     gridtolerance="10"
     guidetolerance="10"
     inkscape:pageopacity="0"
     inkscape:pageshadow="2"
     inkscape:window-width="1276"
     inkscape:window-height="755"
     id="namedview3392"
     showgrid="false"
     inkscape:zoom="1.1228426"
     inkscape:cx="265"
     inkscape:cy="246.25"
     inkscape:window-x="4"
     inkscape:window-y="1"
     inkscape:window-maximized="1"
     inkscape:current-layer="svg3390" />
  <path
     style="fill:#000000"
     d="m 207.7656,471.9427 c -18.77337,-2.48183 -41.22214,-7.98565 -55.677,-13.65047 -4.31329,-1.69037 -14.9255,-7.76451 -23.58267,-13.49811 -8.65718,-5.73359 -20.80283,-13.43159 -26.99033,-17.10666 -6.187502,-3.67509 -13.640632,-8.29926 -16.562502,-10.27596 -2.92188,-1.97669 -5.3125,-3.4239 -5.3125,-3.21603 0,0.20789 1.37195,4.16041 3.04877,8.78339 2.87103,7.91539 2.47718,12.8628 -0.57061,7.16795 -3.29574,-6.15815 -7.20819,-18.37348 -6.33656,-19.78381 1.37175,-2.21954 21.57761,-1.418 22.34083,0.88623 0.4353,1.31422 -0.9919,1.59022 -6.46359,1.25 -3.86224,-0.24013 -7.02148,-0.37026 -7.02054,-0.28915 9.3e-4,0.0811 6.61107,3.96777 14.6892,8.63703 8.078132,4.66926 21.861722,13.21301 30.630212,18.98612 8.7685,5.77312 19.06163,11.87589 22.87361,13.56173 9.01462,3.9867 29.98789,9.71975 48.01047,13.12367 16.82544,3.17783 26.07286,2.67088 68.17321,-3.73737 34.0565,-5.18385 49.12312,-8.22519 63.125,-12.74237 13.7338,-4.4307 37.01541,-15.19743 45.81129,-21.18572 24.10222,-16.40895 57.42208,-51.53722 78.7938,-83.07028 6.99991,-10.32809 19.22542,-34.19905 31.89927,-62.28507 6.12268,-13.5682 12.83545,-44.15736 12.38469,-56.43521 l -0.13768,-3.75 -47.81318,0.45535 c -47.51014,0.45246 -114.38883,-1.58911 -121.56319,-3.7109 -2.2825,-0.67504 9.94667,-0.86744 31.25,-0.49167 19.25,0.33956 58.0625,0.62707 86.25,0.63893 28.1875,0.0113 52.016,0.50689 52.95222,1.10005 2.26732,1.43652 2.42398,14.39497 0.31142,25.75824 -0.8947,4.8125 -2.37894,12.81976 -3.2983,17.7939 -2.79623,15.12875 -24.81058,63.73018 -37.50259,82.79506 -17.44803,26.20898 -53.01908,64.53564 -74.8171,80.61304 -15.13298,11.1615 -35.88759,21.16109 -57.02065,27.47257 -19.18325,5.72918 -81.52939,16.48494 -100,17.25169 -5.84375,0.24259 -15.6875,-0.22818 -21.875,-1.04617 z m -81.875,-64.7963 c -12.74731,-3.55265 -30.405892,-14.62505 -41.875002,-26.25675 -5.62146,-5.70115 -9.82432,-11.95344 -16.77977,-24.96203 -10.1096,-18.90772 -10.29109,-18.98729 -12.00572,-5.26382 -1.2873,10.3032 -3.48087,8.1315 -4.07573,-4.0351 -0.55894,-11.43195 0.52159,-13.9996 5.82678,-13.84599 6.413,0.18567 16.02222,4.99763 14.59419,7.30822 -0.69401,1.12294 -1.57034,1.0644 -3.613,-0.24135 -1.48321,-0.94812 -3.73674,-2.10737 -5.00783,-2.57611 -2.03409,-0.7501 -1.9401,-0.21453 0.78415,4.46845 1.70237,2.92638 5.79388,10.38319 9.09223,16.57069 7.95148,14.91649 21.75897,28.80265 36.898552,37.10878 14.83921,8.14132 19.32128,9.04873 39.85403,8.06857 29.39406,-1.40317 52.64056,-9.09077 83.80993,-27.7159 11.42138,-6.82479 17.01839,-11.24786 27.26072,-21.54295 21.07712,-21.1857 31.87136,-40.42601 37.05974,-66.05756 1.09784,-5.42351 2.84953,-12.04495 3.89264,-14.7143 2.08569,-5.3373 3.9795,-20.49298 5.10604,-40.86224 l 0.73089,-13.2156 -17.53746,0.5597 c -21.75622,0.69433 -75.78974,-1.06627 -71.51538,-2.33022 1.71875,-0.50824 22.6858,-0.98015 46.59344,-1.04868 l 43.46843,-0.1246 1.17462,3.08946 c 0.73332,1.92878 0.73042,9.79489 -0.007,20.9375 -1.46845,22.16745 -1.97584,25.83159 -4.98131,35.97304 -1.32434,4.46875 -3.58358,13.56628 -5.02053,20.21672 -2.843,13.15788 -11.1041,31.32482 -18.6864,41.09309 -19.41646,25.01423 -36.11691,38.6029 -65.66555,53.43014 -26.79905,13.44752 -70.44224,21.24535 -89.375,15.96884 z M 95.951528,338.30705 c -14.16175,-6.43508 -25.05867,-17.15239 -31.76808,-31.24444 -3.54315,-7.44183 -5.05525,-11.49569 -8.96753,-24.04143 -0.96129,-3.08261 -4.15942,-0.0149 -4.96686,4.76435 -1.02434,6.06302 -3.10846,6.44484 -3.10846,0.56949 0,-8.91252 6.53549,-16.70448 9.62539,-11.47592 0.54978,0.93032 3.45834,2.01093 6.46346,2.40136 5.39888,0.70142 8.84445,2.64051 7.34907,4.1359 -0.42373,0.42372 -2.78176,0.10662 -5.24006,-0.7047 -2.45831,-0.81131 -4.97508,-1.28925 -5.59283,-1.06209 -1.25662,0.46211 4.19464,17.23451 8.55062,26.30848 4.20805,8.7658 11.41056,16.22833 21.59326,22.37282 8.89441,5.36711 9.30699,5.48 19.730232,5.39854 8.65449,-0.0676 12.86715,-0.85226 22.52086,-4.19459 32.05186,-11.09706 45.92398,-23.92307 58.14411,-53.75945 l 5.66361,-13.82811 -0.34136,-22.14215 -0.34136,-22.14214 -4.375,-0.97636 c -5.15599,-1.15065 -21.27731,-1.8453 -50.625,-2.18137 -13.17077,-0.15083 -20.2995,-0.65178 -18.75,-1.31763 1.375,-0.59086 16,-1.089 32.5,-1.10698 29.93882,-0.0326 39.79651,1.02647 43.43279,4.6663 1.14809,1.14922 1.54433,7.6525 1.48168,24.31722 l -0.0855,22.74846 -5.69009,13.89269 c -12.43669,30.36492 -27.58929,44.45078 -59.60178,55.40585 -14.39233,4.92522 -30.73798,6.31452 -37.601162,3.1959 z m -27.0025,-69.81595 c -6.65231,-3.00842 -16.56417,-15.39394 -18.85594,-23.56175 -1.11756,-3.98295 -2.59454,-7.24174 -3.28217,-7.24174 -0.68763,0 -3.10022,1.14335 -5.3613,2.54077 -5.71432,3.53165 -6.48869,1.03448 -1.13647,-3.66485 4.49627,-3.94777 7.34225,-4.82677 8.67034,-2.67788 0.40723,0.65892 4.09668,2.4218 8.19877,3.91748 4.10209,1.49571 7.45834,3.20659 7.45834,3.80197 0,1.62632 -3.29119,1.30776 -8.35707,-0.8089 -2.48973,-1.04028 -4.62613,-1.7434 -4.74756,-1.5625 -0.12143,0.1809 0.5211,2.86257 1.42783,5.95927 1.95012,6.66008 11.70672,18.36243 17.23517,20.67235 9.29637,3.88428 22.55346,-3.01795 28.73121,-14.95874 2.964102,-5.72923 3.770302,-9.09741 4.217672,-17.6209 l 0.55309,-10.53773 -4.453302,-4.4533 -4.4533,-4.4533 -16.63937,0.18485 c -17.86652,0.1985 -32.60641,1.41356 -36.63937,3.02032 -2.26974,0.90428 -2.32399,0.80778 -0.58904,-1.04776 2.85058,-3.04871 13.56754,-4.56825 34.51746,-4.89419 20.77037,-0.32314 22.99839,0.24283 27.643502,7.02191 2.32532,3.39358 2.80297,5.78205 2.80245,14.01348 -0.001,15.8983 -5.61825,27.30614 -16.888132,34.29742 -5.16574,3.20459 -15.22901,4.23522 -20.05281,2.05372 z m -38.68576,-62.67849 c 1.34179,-7.93369 1.87177,-9.20556 4.12877,-9.90846 4.12387,-1.2843 37.28616,-3.34332 49.62356,-3.08109 15.75545,0.33487 16.875002,0.86785 16.875002,8.03352 0,3.06957 -0.5625,5.58103 -1.250002,5.58103 -0.6875,0 -1.25,-1.36025 -1.25,-3.02276 0,-7.01063 0.0679,-6.98859 -21.07124,-6.83733 -10.75457,0.077 -24.87276,0.49883 -31.37375,0.9375 l -11.81999,0.79759 -1.30501,5.22556 c -1.73083,6.93063 -3.63058,8.62022 -2.55734,2.27444 z m 0.97608,-28.4375 c 0.28612,-10.68084 0.93828,-12.13607 5.45324,-12.16836 4.85333,-0.0348 5.25533,9.08007 0.4675,10.59967 -2.3156,0.73495 -3.72248,4.13503 -3.75242,9.06869 -0.009,1.54687 -0.56326,2.8125 -1.23082,2.8125 -0.70924,0 -1.09892,-4.2865 -0.9375,-10.3125 z m 6.52625,-7.1875 c 0,-1.60416 -0.70313,-3.15104 -1.5625,-3.4375 -1.0307,-0.34356 -1.5625,0.82639 -1.5625,3.4375 0,2.61111 0.5318,3.78106 1.5625,3.4375 0.85937,-0.28646 1.5625,-1.83334 1.5625,-3.4375 z m 23.55626,12.71407 c 1.45902,-1.61218 2.06874,-4.58125 2.06874,-10.07377 0,-4.87359 0.46776,-7.49875 1.25,-7.0153 1.64534,1.01687 1.61202,13.86291 -0.044,16.95717 -0.71169,1.3298 -2.20512,2.41783 -3.31874,2.41783 -1.85031,0 -1.84652,-0.19695 0.044,-2.28593 z m -8.24376,-7.78865 c -2.72561,-1.61935 -2.80338,-4.67303 -0.1925,-7.55802 1.63821,-1.8102 2.54353,-1.95453 5.06212,-0.80698 2.44051,1.11197 2.99059,2.18067 2.6925,5.23103 -0.40911,4.18651 -3.57923,5.50031 -7.56212,3.13397 z m 6.0547,-2.61505 c 1.16556,-1.88591 -3.32493,-5.22763 -4.9035,-3.64907 -1.59255,1.59255 -0.0994,5.0887 2.1733,5.0887 1.01225,0 2.24084,-0.64784 2.7302,-1.43963 z m 30.1953,1.97241 c -0.51563,-0.52219 -0.85322,-4.93382 -0.75021,-9.80362 0.10301,-4.86979 0.42162,-7.30729 0.70803,-5.41666 0.45248,2.98691 1.12429,3.46372 5.12521,3.63755 4.52106,0.19642 4.53206,0.20909 0.60742,0.69931 -3.76625,0.47044 -4.01887,0.82648 -4.375,6.16606 -0.20787,3.11676 -0.79983,5.23956 -1.31545,4.71736 z m -47.1875,-2.94349 c 0,-3.21909 3.28812,-6.34363 6.65179,-6.32087 2.58931,0.0175 2.56956,0.0959 -0.40179,1.59379 -1.71875,0.86645 -3.30475,2.82691 -3.52444,4.35658 -0.48949,3.40823 -2.72556,3.7122 -2.72556,0.3705 z m 27.08333,1.57737 c -1.26567,-1.26567 -0.99528,-7.66902 0.35918,-8.50614 1.86133,-1.15036 7.72092,0.72199 7.20152,2.30115 -0.25567,0.77733 -1.82704,1.5784 -3.49194,1.78017 -2.48305,0.30091 -2.69011,0.11525 -1.15209,-1.03267 1.53375,-1.14478 1.54797,-1.31108 0.0781,-0.91371 -2.92003,0.78944 -3.05516,3.56384 -0.20982,4.30791 1.44743,0.37852 2.63169,1.1851 2.63169,1.79242 0,1.28626 -4.19167,1.49587 -5.41666,0.27087 z m 9.65342,-2.39746 c -1.02128,-4.0691 2.35726,-8.17519 4.75432,-5.77813 1.17857,1.17857 1.05984,1.50893 -0.5423,1.50893 -3.47942,0 -4.01626,2.76745 -1.00918,5.20244 2.79119,2.26017 2.79482,2.29756 0.2227,2.29756 -1.76932,0 -2.87682,-1.04455 -3.42554,-3.2308 z m -53.29925,-22.4908 c -1.24154,-1.25156 -1.15953,-4.49266 0.16663,-6.58519 2.3699,-3.7394 29.44396,-5.13974 99.520872,-5.14747 37.125,-0.004 68.12199,0.4058 68.8822,0.9109 1.78111,1.18341 3.4968,10.29336 1.93855,10.29336 -0.64214,0 -1.52156,-1.88716 -1.95426,-4.1937 l -0.78675,-4.19369 -71.53987,0.49355 c -39.346932,0.27145 -76.598112,0.89299 -82.780412,1.38119 -11.10263,0.87676 -11.24832,0.93119 -11.875,4.43689 -0.34895,1.95207 -1.05634,3.12395 -1.57196,2.60416 z M 115.89657,128.843 c -0.003,-1.08328 1.40343,-3.29367 3.12604,-4.91198 l 3.13201,-2.94236 -2.72491,-2.90053 c -3.11714,-3.31805 -1.78116,-3.95954 1.69484,-0.8138 2.16035,1.95509 2.42033,1.93538 4.12117,-0.3125 2.09343,-2.7667 2.49579,-1.48268 0.62865,2.00611 -2.36661,4.42204 -9.97151,11.94864 -9.9778,9.87506 z m -25.943472,-5.73324 c -1.9891,-0.80262 -2.02904,-5.70561 -0.0625,-7.67215 0.825,-0.825 2.56516,-1.5 3.86702,-1.5 1.31577,0 2.65738,-1.11031 3.02079,-2.5 1.28651,-4.91963 2.86219,-2.3735 2.86219,4.625 0,5.31761 -0.36012,6.76488 -1.41964,5.70536 -1.05953,-1.05953 -1.87489,-0.9644 -3.21429,0.375 -1.8811,1.8811 -2.49609,1.99875 -5.05357,0.96679 z m 4.6875,-4.17215 c 1.13424,-2.11935 0.95061,-2.5 -1.20602,-2.5 -1.71065,0 -2.54398,0.81893 -2.54398,2.5 0,1.375 0.54271,2.5 1.20602,2.5 0.66331,0 1.8081,-1.125 2.54398,-2.5 z m 16.872162,3.74541 c -0.42645,-0.69002 -2.14191,-0.91161 -3.81212,-0.49241 -3.5465,0.89011 -5.86192,-2.75333 -2.92969,-4.61001 2.75939,-1.74723 6.11965,-1.32375 6.11965,0.77124 0,1.05283 0.84375,2.23801 1.875,2.63374 2.06025,0.79059 2.57188,2.95203 0.69877,2.95203 -0.64692,0 -1.52515,-0.56456 -1.95161,-1.25459 z m -3.12216,-3.74541 c 0,-0.6875 -0.24805,-1.25 -0.55123,-1.25 -0.30318,0 -0.89887,0.5625 -1.32377,1.25 -0.4249,0.6875 -0.17684,1.25 0.55123,1.25 0.72807,0 1.32377,-0.5625 1.32377,-1.25 z M 27.284348,106.90317 c -0.0791,-2.8377 0.55937,-5.7413 1.41875,-6.45245 0.85937,-0.711151 11.40625,-2.630661 23.4375,-4.265571 l 21.875,-2.97257 119.584302,0.67502 c 65.77135,0.37126 119.84627,0.95626 120.16648,1.30001 1.44073,1.54669 2.24218,8.750001 0.97355,8.750001 -0.74214,0 -1.34933,-1.0918 -1.34933,-2.42623 0,-1.33443 -0.52455,-2.750421 -1.16567,-3.146651 -0.64112,-0.39623 -57.03174,-0.77961 -125.31251,-0.85194 -108.795912,-0.11527 -126.148782,0.12477 -140.337212,1.9412 -8.90471,1.140001 -16.44537,2.327711 -16.75702,2.639371 -0.31166,0.31165 -0.97692,2.68223 -1.47837,5.26795 l -0.91172,4.7013 -0.14375,-5.15944 z M 158.5156,85.062609 c -4.6081,-5.093156 -4.64386,-5.265341 -1.74396,-8.39439 2.43395,-2.626283 3.12555,-2.823771 4.85686,-1.386908 1.8348,1.522751 1.76584,1.880253 -0.75676,3.922928 -2.27573,1.842774 -2.49638,2.583863 -1.22528,4.115433 0.85264,1.027367 2.35833,1.867937 3.34596,1.867937 0.98765,0 1.44808,0.5625 1.02318,1.25 -1.19056,1.92637 -2.89963,1.49911 -5.5,-1.375 z m -23.83103,-1.04282 c -0.71168,-1.329802 -1.23875,-4.282927 -1.17125,-6.5625 l 0.12275,-4.144676 1.43979,5.15388 c 1.25985,4.509794 1.7176,4.978435 3.66286,3.75 1.72302,-1.088089 2.47718,-0.996385 3.35269,0.407679 0.89698,1.438467 1.5976,0.989575 3.40193,-2.179598 2.13391,-3.748075 4.1473,-5.221525 4.1473,-3.035094 0,1.275229 -3.87348,6.911959 -5.51063,8.019129 -0.70428,0.4763 -1.95243,0.30836 -2.77366,-0.3732 -0.99291,-0.82403 -1.76452,-0.80008 -2.3032,0.0715 -1.23672,2.00107 -2.93549,1.57054 -4.36854,-1.10712 z m 35.15738,-0.744371 c -2.18804,-2.516454 -2.48034,-3.665115 -1.43145,-5.625 1.50226,-2.806991 6.2301,-3.354549 6.2301,-0.721541 0,0.957695 -0.98438,2.124485 -2.1875,2.592865 -1.9895,0.774521 -1.93294,1.059327 0.625,3.146602 3.19679,2.608585 3.55489,3.769265 1.16292,3.769265 -0.90727,0 -2.88686,-1.42298 -4.39907,-3.162191 z m 12.46887,-10.275305 c 0.0936,-5.328125 0.39173,-8.28125 0.66245,-6.5625 1.3005,8.256696 1.68369,9.042534 3.62404,7.432187 1.01954,-0.846141 2.26199,-1.111059 2.761,-0.588708 0.499,0.522352 -0.0165,1.545785 -1.14556,2.274296 -1.8564,1.197814 -1.7966,1.532333 0.625,3.495795 1.47282,1.194178 2.25942,2.591203 1.74801,3.1045 -0.51141,0.513299 -2.05829,-0.08796 -3.4375,-1.336135 -2.25257,-2.03855 -2.50766,-2.058964 -2.50766,-0.20067 0,1.137805 -0.5625,2.068735 -1.25,2.068735 -0.74045,0 -1.18061,-3.949015 -1.07978,-9.6875 z M 503.13016,60.814059 c -0.3135,-3.780455 -0.99251,-7.29608 -1.50892,-7.8125 -0.5164,-0.516421 -47.43893,-0.9255 -104.27228,-0.909065 -82.38997,0.02382 -105.36013,0.381443 -113.33336,1.764468 -7.8143,1.355457 -22.4312,1.640765 -66.875,1.305332 -31.28125,-0.23609 -84.15625,-0.4676 -117.500002,-0.514467 -65.2745,-0.09175 -65.11553,-0.106838 -67.59481,6.414148 -1.51874,3.994583 -2.99445,2.8936 -1.91046,-1.425337 0.43723,-1.74207 2.30771,-4.158891 4.15663,-5.370713 3.11004,-2.038387 8.41845,-2.197311 70.917662,-2.123142 37.15579,0.0441 88.93098,0.255144 115.05598,0.469 35.43754,0.290087 50.51561,-0.04699 59.375,-1.327329 15.0515,-2.175221 221.53683,-2.560276 223.67982,-0.417119 1.8144,1.814537 3.28912,16.820278 1.65304,16.820278 -0.70031,0 -1.52978,-3.0931 -1.8433,-6.873554 z m -303.34344,-25.688946 0.14614,-8.0625 1.12633,6.790036 c 0.73692,4.442438 0.6864,7.22998 -0.14613,8.0625 -0.86329,0.863285 -1.22547,-1.320146 -1.12634,-6.790036 z m 48.88202,4.36662 c -1.52798,-1.070234 -2.77814,-2.436305 -2.77814,-3.035714 0,-2.066856 3.82689,-4.91044 5.66118,-4.206559 2.62054,1.0056 2.27296,3.058673 -0.64712,3.822291 -3.28882,0.860046 -1.93472,2.865862 1.93471,2.865862 1.67818,0 3.05123,0.5625 3.05123,1.25 0,1.89154 -4.09054,1.497386 -7.22186,-0.69588 z m -41.52814,-0.39787 c 0,-0.601563 1.6875,-1.43125 3.75,-1.84375 4.19526,-0.839051 5.12864,-3.3125 1.25,-3.3125 -3.08361,0 -3.24964,-1.939151 -0.3125,-3.649876 1.79776,-1.047103 1.40804,-1.294992 -2.1875,-1.391347 -4.12181,-0.110462 -4.19888,-0.187608 -1.3316,-1.333143 4.10306,-1.63926 6.77519,-0.456913 5.96544,2.639555 -0.35739,1.366646 -0.13995,2.484811 0.48318,2.484811 2.14615,0 1.12873,4.914312 -1.28485,6.20602 -2.95162,1.579665 -6.33217,1.686561 -6.33217,0.20023 z m 22.08334,0.260416 c -0.45834,-0.458332 -0.78893,-2.286457 -0.73465,-4.0625 l 0.0986,-3.229166 1.27758,3.503754 c 1.19177,3.268466 1.38989,3.352407 2.95019,1.25 1.40843,-1.897786 2.07501,-2.008095 4.22033,-0.6984 2.28085,1.392424 2.76823,1.13054 4.65263,-2.5 1.1577,-2.230445 2.32965,-3.390361 2.60432,-2.577593 0.54625,1.616144 -2.97228,9.147239 -4.27354,9.147239 -0.44383,0 -1.82391,-0.920318 -3.06683,-2.045149 -2.09233,-1.893532 -2.31805,-1.893532 -3.04467,0 -0.80191,2.08974 -3.1886,2.70721 -4.68398,1.211815 z m 31.91666,-0.666666 c -0.825,-0.825 -1.5,-2.79375 -1.5,-4.375 0,-2.361111 0.67029,-2.875 3.75,-2.875 4.46253,0 4.79341,1.46722 0.9375,4.15697 l -2.8125,1.9619 2.8125,0.06556 c 1.54687,0.03606 2.8125,0.628068 2.8125,1.315568 0,1.740737 -4.18358,1.566421 -6,-0.25 z m 30.375,0.369296 3.75,-0.834917 -4.0625,-1.452165 c -4.7398,-1.69427 -5.22497,-3.722989 -1.25,-5.226794 3.233,-1.223104 4.81551,-0.479619 2.29492,1.078187 -1.3262,0.819637 -1.11426,1.35857 0.9737,2.476014 4.19026,2.242556 3.37997,5.116265 -1.39362,4.942485 l -4.0625,-0.147894 3.75,-0.834916 z M 271.82252,38.20287 c -0.42477,-0.424772 -0.24572,-2.157345 0.39788,-3.85016 0.64361,-1.692816 1.2367,-5.431852 1.31798,-8.308972 l 0.14776,-5.231125 1.2552,6.034617 c 1.14615,5.510354 1.5134,5.969814 4.22722,5.288685 1.67307,-0.419909 2.97204,-0.18919 2.97204,0.527883 0,0.700599 -0.84375,1.273815 -1.875,1.273815 -2.54681,0 -2.36799,2.088636 0.3125,3.649876 3.02631,1.762668 -0.38109,1.735868 -3.67865,-0.02894 -1.88593,-1.00932 -2.80841,-1.004284 -3.4407,0.01879 -0.47515,0.768814 -1.21145,1.050302 -1.63622,0.625529 z"
     id="path3402"
     inkscape:connector-curvature="0" />
</svg>
