<?xml version="1.0" encoding="UTF-8" standalone="no"?>
<!-- Created with Inkscape (http://www.inkscape.org/) -->

<svg
   xmlns:dc="http://purl.org/dc/elements/1.1/"
   xmlns:cc="http://creativecommons.org/ns#"
   xmlns:rdf="http://www.w3.org/1999/02/22-rdf-syntax-ns#"
   xmlns:svg="http://www.w3.org/2000/svg"
   xmlns="http://www.w3.org/2000/svg"
   xmlns:sodipodi="http://sodipodi.sourceforge.net/DTD/sodipodi-0.dtd"
   xmlns:inkscape="http://www.inkscape.org/namespaces/inkscape"
   id="svg4166"
   version="1.1"
   inkscape:version="0.91 r13725"
   width="256.79553"
   height="407.59094"
   viewBox="0 0 256.79553 407.59094"
   sodipodi:docname="1bis.svg">
  <metadata
     id="metadata4172">
    <rdf:RDF>
      <cc:Work
         rdf:about="">
        <dc:format>image/svg+xml</dc:format>
        <dc:type
           rdf:resource="http://purl.org/dc/dcmitype/StillImage" />
        <dc:title></dc:title>
      </cc:Work>
    </rdf:RDF>
  </metadata>
  <defs
     id="defs4170" />
  <sodipodi:namedview
     pagecolor="#ffffff"
     bordercolor="#666666"
     borderopacity="1"
     objecttolerance="10"
     gridtolerance="10"
     guidetolerance="10"
     inkscape:pageopacity="0"
     inkscape:pageshadow="2"
     inkscape:window-width="1221"
     inkscape:window-height="722"
     id="namedview4168"
     showgrid="false"
     inkscape:zoom="0.67708333"
     inkscape:cx="477.28321"
     inkscape:cy="90.245081"
     inkscape:window-x="41"
     inkscape:window-y="65"
     inkscape:window-maximized="0"
     inkscape:current-layer="svg4166"
     fit-margin-top="0"
     fit-margin-left="0"
     fit-margin-right="0"
     fit-margin-bottom="0" />
  <path
     inkscape:connector-curvature="0"
     id="path4184"
     d="m 120.62936,406.15176 c -4.95,-0.74659 -15.525,-1.83385 -23.500001,-2.41613 -7.975,-0.58227 -17.2,-1.50277 -20.5,-2.04555 -3.3,-0.54278 -7.46428,-1.22694 -9.25395,-1.52036 -4.215799,-0.6912 -6.897839,-3.65951 -8.951629,-9.90714 -1.4456,-4.39754 -1.7557,-14.20379 -2.45178,-77.53425 -0.43828,-39.875 -1.26765,-94.325 -1.84304,-121 C 52.2852,106.25187 52.02387,79.118532 53.06061,80.800472 c 0.53299,0.86468 1.23471,9.86468 1.55939,19.999998 0.32467,10.13532 1.24901,27.42786 2.05408,38.42786 2.03779,27.84305 3.68759,96.12166 4.37347,181 0.62074,76.8173 0.53241,75.58022 5.532049,77.48108 1.28075,0.48694 10.59089,1.3829 20.6892,1.99102 10.09831,0.60812 23.760561,1.84894 30.360561,2.75738 6.6,0.90844 15.549,1.82714 19.88667,2.04155 l 7.88667,0.38985 -0.6505,-7.83044 c -0.35777,-4.30674 -0.92958,-18.8846 -1.27068,-32.39524 l -0.62019,-24.56481 -12.61599,-1.2584 c -6.93879,-0.69213 -24.93907,-1.66105 -40.000621,-2.15317 -15.06155,-0.49212 -27.582519,-1.09265 -27.824379,-1.3345 -1.17514,-1.17515 17.359129,-1.85227 35.709019,-1.30458 21.241361,0.63399 38.452941,2.14157 42.644731,3.73529 l 2.42018,0.92015 -0.56286,-49.23759 c -0.40289,-35.24384 -1.00615,-52.9323 -2.12259,-62.23759 -0.85785,-7.15 -1.7293,-13.17263 -1.93655,-13.38363 -0.68878,-0.7012 -31.69825,-2.02367 -48.546221,-2.07036 -16.94115,-0.047 -28.896689,-0.84895 -28.896689,-1.93847 -10e-6,-0.85846 65.33041,-0.5549 72.03485,0.33472 l 5.53485,0.73442 -0.32818,-4.33834 c -0.89746,-11.86369 -4.53612,-42.65388 -6.24422,-52.83834 -3.49963,-20.86635 -5.21693,-41.58621 -4.84711,-58.482438 l 0.34981,-15.98245 -5,-0.79988 c -6.49919,-1.03971 -34.353021,-0.0188 -51.381421,1.88321 -7.359779,0.82207 -13.997279,1.25835 -14.749999,0.9695 -2.56334,-0.98364 -1.42555,-3.3556 1.88142,-3.9222 17.850419,-3.05841 63.32144,-3.41552 69.32242,-0.54443 l 2.92758,1.40065 0.62912,18.98902 c 0.70777,21.362828 2.10593,36.608408 4.90543,53.489018 3.54853,21.39717 8.60373,71.95178 9.99948,100 0.50634,10.175 0.87242,49.22792 0.81352,86.78427 -0.10153,64.73296 -0.20095,68.33449 -1.91158,69.25 -2.45058,1.31151 -13.52623,1.03464 -24.43597,-0.61084 z M 98.848329,378.81939 c -7.75417,-1.61257 -11.77464,-6.05488 -10.19741,-11.26734 0.88957,-2.93989 5.16553,-7.57759 8.67878,-9.413 4.595731,-2.40092 20.799661,-1.1667 20.799661,1.58426 0,0.49948 -1.35707,0.4279 -3.04529,-0.16061 -4.77439,-1.66436 -15.02495,-0.63261 -18.533111,1.86542 -6.44824,4.59156 -7.01059,10.96543 -1.18432,13.42362 2.08981,0.88172 6.408251,1.30523 12.012721,1.17809 8.12317,-0.18429 10.94839,0.64092 7.16492,2.09278 -2.86579,1.0997 -11.8423,1.49819 -15.695951,0.69678 z M 181.8961,366.16174 c -0.32995,-0.32996 -0.3475,-3.93746 -0.039,-8.01667 0.51448,-6.80263 0.40407,-7.41926 -1.33341,-7.44715 -1.76577,-0.0283 -1.77557,-0.0996 -0.14434,-1.04969 1.35489,-0.78915 1.76587,-2.41916 1.82029,-7.21959 0.0809,-7.13816 1.74079,-5.20433 1.85942,2.16632 0.0649,4.03388 0.24175,4.31905 2.32029,3.74218 5.99421,-1.66358 6.75,-1.75718 6.75,-0.83593 0,0.54433 -1.93113,1.47595 -4.2914,2.07028 l -4.2914,1.08058 -0.065,7.0945 c -0.0597,6.52241 -1.09822,9.90245 -2.5855,8.41517 z m 11.72773,-4.44236 c -1.99071,-3.22103 6.52702,-11.99105 11.64609,-11.99105 l 3.1348,0 -0.66977,5.69876 c -0.36838,3.13432 -0.88034,5.90932 -1.13769,6.16667 -1.03145,1.03145 -1.18358,-0.61432 -0.52009,-5.62636 0.66091,-4.9926 0.59075,-5.23094 -1.37569,-4.67292 -2.44034,0.69251 -10.04364,8.29566 -9.16974,9.16957 0.33035,0.33034 1.72428,-7.3e-4 3.09762,-0.73572 3.07365,-1.64497 4.72927,-0.37204 2.0573,1.58176 -2.25112,1.64606 -6.15852,1.8725 -7.06283,0.40929 z m -31.99447,-0.99105 c -2.11451,-0.53805 -0.41732,-0.79829 5.75,-0.88169 5.24554,-0.0709 8.75,0.2822 8.75,0.88169 0,1.14832 -9.98717,1.14832 -14.5,0 z m 66.93124,-0.31859 c -0.30505,-0.79494 0.0945,-4.76097 0.88788,-8.81338 1.27784,-6.52694 1.45612,-6.88432 1.5617,-3.13064 l 0.11918,4.23739 5.48036,-2.42368 c 3.18401,-1.40812 5.72825,-2.02257 6.07197,-1.46643 0.32538,0.52648 -1.01578,1.62885 -2.98036,2.44971 -1.96458,0.82085 -3.57197,1.69389 -3.57197,1.94008 0,0.2462 0.97975,1.36041 2.17723,2.47602 1.19747,1.11562 1.82858,2.37065 1.40245,2.78896 -0.42613,0.41831 -1.98096,-0.67775 -3.45518,-2.43569 -3.13062,-3.73311 -4.94834,-3.19867 -5.31106,1.56155 -0.27541,3.61444 -1.51399,5.07862 -2.3822,2.81611 z m -13.43124,-0.68141 c 0,-0.55 1.18125,-1 2.625,-1 2.44583,0 2.57477,-0.22183 1.8891,-3.25 -0.93812,-4.14303 -0.85012,-6.81398 0.2611,-7.9252 0.50271,-0.50271 0.90293,0.52123 0.93771,2.39909 0.0334,1.80186 0.39823,4.56148 0.8108,6.13248 0.52701,2.00682 0.33761,3.1176 -0.6368,3.73468 -1.89491,1.20004 -5.88691,1.13829 -5.88691,-0.091 z M 86.672069,286.79743 c -0.7216,-1.16757 0.23786,-1.66938 3.57216,-1.86832 3.38032,-0.20168 11.054451,-3.49495 12.664361,-5.43476 2.00571,-2.41675 -1.3924,-5.60982 -7.075421,-6.64848 -6.15272,-1.12452 -6.7686,-1.83784 -3.70381,-4.28982 5.89611,-4.71717 8.032851,-6.96556 7.47597,-7.86661 -0.79559,-1.28728 -3.90703,-1.21185 -8.65188,0.20974 -3.46289,1.03751 -3.85076,1.46458 -3.40582,3.75 0.84676,4.34926 1.08568,16.90853 0.33593,17.65828 -1.17428,1.17429 -1.63754,-1.60599 -1.95326,-11.7225 l -0.30094,-9.64337 4.5,-1.61158 c 5.57359,-1.99606 9.38462,-2.0481 10.960171,-0.14967 1.82847,2.20316 0.38253,5.12294 -4.209261,8.49979 -3.87369,2.84874 -3.9782,3.0482 -1.59714,3.0482 6.634861,0 11.771911,4.50809 10.326501,9.06217 -1.24929,3.93617 -17.190141,9.83431 -18.937561,7.00693 z M 192.12936,267.80165 c 0,-6.70833 -0.26898,-7.99696 -1.75,-8.38399 -1.66667,-0.43555 -1.66667,-0.46285 0,-0.57333 1.26127,-0.0836 1.77784,-1.02364 1.84968,-3.366 0.0548,-1.7875 0.45997,-4.375 0.90032,-5.75 0.62993,-1.96696 0.82189,-1.38061 0.90032,2.75 l 0.0997,5.25 6.5,0 c 3.66667,0 6.5,0.4359 6.5,1 0,0.56143 -2.77821,1 -6.33463,1 l -6.33462,0 0.46311,8 c 0.40028,6.91456 0.24216,8 -1.16537,8 -1.36769,0 -1.62849,-1.26945 -1.62849,-7.92668 z m 37,3.37739 c 0,-0.43627 0.76515,-1.63871 1.70033,-2.67207 1.44281,-1.59429 1.51919,-2.35872 0.50434,-5.04737 -0.97135,-2.57339 -0.93358,-3.43093 0.20109,-4.5656 1.1961,-1.1961 1.40979,-1.05676 1.48545,0.96863 0.0486,1.30113 0.20547,3.879 0.34859,5.72858 0.19738,2.55104 -0.28298,3.7272 -1.9898,4.87198 -1.2375,0.82999 -2.25,1.15213 -2.25,0.71585 z m -12,-2.29654 c 0,-0.53972 -1.68134,-0.73834 -3.82092,-0.45136 -4.61814,0.61942 -7.61434,-1.67266 -6.61205,-5.05818 0.98279,-3.31967 3.55857,-4.76098 7.93297,-4.43903 l 4,0.2944 0,4.84276 c 0,2.66352 -0.3375,5.05258 -0.75,5.30902 -0.4125,0.25644 -0.75,0.0325 -0.75,-0.49761 z m -2.25,-2.78446 c 1.67369,-0.44853 2.25,-1.34151 2.25,-3.48634 0,-2.40893 -0.41136,-2.88337 -2.5,-2.88337 -2.43372,0 -6.5,3.07578 -6.5,4.91667 0,1.7303 3.16949,2.41258 6.75,1.45304 z m -49.75,0.7104 c 0,-0.83169 10.14069,-2.19773 10.91667,-1.47057 0.79253,0.74268 -0.43853,1.1127 -5.66667,1.70323 -2.8875,0.32615 -5.25,0.22146 -5.25,-0.23266 z m 75,-3.00679 c 0,-1.94642 -0.58614,-3.07985 -1.75,-3.38399 -1.66667,-0.43555 -1.66667,-0.46285 0,-0.57333 1.46135,-0.0969 1.75,-1.11538 1.75,-6.17502 0,-3.7847 0.37536,-5.82703 1,-5.44098 0.55,0.33992 1,3.07505 1,6.07807 0,5.4491 0.006,5.45872 2.75,4.80265 1.5125,-0.36156 3.57604,-1.08159 4.58565,-1.60007 1.0096,-0.51848 2.06716,-0.71117 2.35013,-0.4282 0.84122,0.84121 -0.69034,2.64755 -2.2448,2.64755 -2.09197,0 -1.78586,1.03058 1.24611,4.19528 3.62477,3.78344 1.11741,3.59094 -2.8708,-0.22041 -3.66198,-3.49958 -5.18802,-3.40415 -5.63271,0.35225 -0.42782,3.61388 -2.18358,3.40981 -2.18358,-0.2538 z m -49.16903,-32.50532 c -0.18203,-4.14957 0.18735,-9.46242 0.82085,-11.80634 l 1.15183,-4.26166 0.0982,4.38768 0.0982,4.38768 5.5,-0.64641 c 3.3081,-0.38881 5.5,-0.26247 5.5,0.317 0,1.11037 -5.76018,2.37464 -8.58833,1.88501 -1.71764,-0.29737 -1.91167,0.31891 -1.91167,6.07192 0,3.98901 -0.44072,6.55498 -1.16903,6.80634 -0.80653,0.27836 -1.27165,-1.93602 -1.5,-7.14122 z m 14.39154,0.8753 c -1.22238,-0.85619 -2.22251,-2.13645 -2.22251,-2.84502 0,-1.68157 2.83002,-4.20296 6.12243,-5.45473 2.31972,-0.88195 2.7583,-0.69006 3.84067,1.6804 0.67205,1.47183 1.83435,3.91355 2.58289,5.42605 1.18849,2.40146 1.16491,2.75 -0.18612,2.75 -0.85091,0 -1.78726,-0.91835 -2.08078,-2.04077 l -0.53368,-2.04077 -1.42941,2.04077 c -1.71355,2.44644 -3.13105,2.55904 -6.09349,0.48407 z m 4.80224,-3.0084 c 1.86583,-4.9075 0.99169,-5.63158 -2.89251,-2.39598 -1.94518,1.62036 -2.14641,2.23908 -1.12755,3.46673 1.7848,2.15055 2.90919,1.85107 4.02006,-1.07075 z m 12.97525,3.6901 c 0,-0.61875 0.81399,-1.125 1.80887,-1.125 0.99488,0 2.68238,-0.64759 3.75,-1.4391 1.65173,-1.22454 1.75477,-1.74433 0.69113,-3.48643 -1.78563,-2.92462 -1.54861,-4.84429 0.75,-6.07447 1.41418,-0.75684 2,-0.75796 2,-0.004 0,0.58661 -0.69115,1.33179 -1.53589,1.65594 -1.38118,0.53001 -1.38118,0.82549 0,2.93344 2.84994,4.34955 1.49668,6.87226 -4.30942,8.03348 -2.04403,0.40901 -3.15469,0.23507 -3.15469,-0.49386 z m 16,-3.59362 c 0,-3.79877 -0.26232,-4.38613 -1.75,-3.91836 -1.65981,0.52189 -1.6605,0.47644 -0.0133,-0.88191 0.96167,-0.79303 2.13675,-3.84182 2.6331,-6.83164 l 0.89638,-5.39947 0.11691,5.25 c 0.0643,2.8875 0.35983,5.25 0.65674,5.25 0.29691,0 2.29742,-0.89665 4.44558,-1.99256 2.44174,-1.24568 4.13975,-1.61392 4.53005,-0.9824 0.34338,0.55559 -1.20855,1.83076 -3.44873,2.83372 l -4.07305,1.82356 4.55908,2.34482 c 2.50749,1.28965 4.78547,2.71113 5.06217,3.15884 1.09574,1.77295 -2.46954,0.65791 -6.91916,-2.16396 l -4.69577,-2.97797 0,4.47797 c 0,2.46289 -0.45,4.47798 -1,4.47798 -0.55,0 -1,-2.01088 -1,-4.46862 z m -69.16909,1.49581 c -9.58888,-0.758 -9.58736,-2.02719 0.002,-2.02719 4.49167,0 8.16667,0.42344 8.16667,0.94098 0,1.50025 -1.09296,1.64558 -8.16909,1.08621 z m 85.16909,-10.02719 c 0,-0.55 0.47656,-1 1.05902,-1 0.58246,0 0.7809,0.45 0.44098,1 -0.33992,0.55 -0.81648,1 -1.05902,1 -0.24254,0 -0.44098,-0.45 -0.44098,-1 z m -159.467131,-73.5 -1.86763,-7.5 -4.68373,0 -4.68372,0 -3.16038,7.15518 c -1.7382,3.93536 -3.37924,6.93633 -3.64674,6.66883 -0.2675,-0.26751 0.60213,-3.68668 1.93252,-7.59818 1.72257,-5.06455 2.08178,-7.24943 1.24785,-7.58987 -0.64407,-0.26294 -0.38354,-0.51359 0.57896,-0.55701 0.9625,-0.0434 1.75,-0.58518 1.75,-1.2039 0,-2.20532 5.2385,-12.75259 6.59172,-13.27187 1.69654,-0.65103 2.7844,1.36385 4.35772,8.07114 0.66755,2.84587 1.81709,5.40585 2.55452,5.68883 0.75536,0.28985 1.12137,1.35358 0.83826,2.43621 -0.2764,1.05693 0.20853,4.31614 1.07762,7.24267 1.919431,6.46342 1.972091,7.95797 0.28041,7.95797 -0.78479,0 -2.03971,-2.97151 -3.16738,-7.5 z m -2.91216,-11.25 c -0.28274,-0.9625 -0.81945,-3.47111 -1.1927,-5.5747 -0.78496,-4.42401 -1.52991,-3.98093 -4.32889,2.5747 l -2.02805,4.75 4.03186,0 c 3.36902,0 3.94733,-0.28769 3.51778,-1.75 z m 89.379291,-6.25 c 0,-5.5355 -0.17419,-6.00524 -2.25,-6.06768 l -2.25,-0.0677 2.25,-1.08513 c 1.57182,-0.75807 2.28004,-2.01867 2.34968,-4.18232 0.0949,-2.94897 0.13409,-2.97755 0.81879,-0.59719 0.63764,2.21675 1.19284,2.46962 4.90032,2.23186 5.37476,-0.34469 5.46532,1.53917 0.11512,2.3947 l -4.06609,0.65019 0.15134,5.11163 c 0.20738,7.00422 0.12605,7.61164 -1.01916,7.61164 -0.55556,0 -1,-2.66667 -1,-6 z m 24,3.46482 c 0,-2.19659 -0.25834,-2.39693 -1.93426,-1.5 -2.7872,1.49166 -7.06574,1.29417 -7.06574,-0.32615 0,-0.90526 0.82037,-1.2045 2.44878,-0.89321 1.74084,0.33278 3.14286,-0.28081 4.8496,-2.12241 1.32045,-1.42479 2.6935,-2.29784 3.05122,-1.94012 1.05333,1.05333 0.74325,9.31707 -0.3496,9.31707 -0.55,0 -1,-1.14083 -1,-2.53518 z m -51.75,-0.17055 c -4.65183,-0.89598 -1.95751,-1.79894 5.75874,-1.92995 7.74986,-0.13158 10.33973,0.77305 5.74126,2.00539 -2.43754,0.65324 -7.90293,0.61738 -11.5,-0.0754 z m 62.75,-0.13375 c 0,-0.95414 4.47715,-3.17758 6.29705,-3.12725 1.66433,0.046 -3.18656,3.96673 -4.90783,3.96673 -0.76407,0 -1.38922,-0.37777 -1.38922,-0.83948 z m -23.44611,-3.07332 c -0.72744,-1.17702 0.64793,-4.17988 2.69113,-5.87558 0.74481,-0.61815 3.35688,-1.38352 5.80459,-1.70084 l 4.45039,-0.57694 -4.4812,1.80461 c -2.46466,0.99253 -4.98513,2.81539 -5.60104,4.05079 -1.52529,3.05942 -2.10552,3.52499 -2.86387,2.29796 z m 38.58988,-1.41396 c -0.91615,-1.1039 -1.64873,-11.06531 -1.22617,-16.67324 0.25664,-3.40593 2.05205,1.57568 2.06709,5.73541 l 0.0153,4.23541 5.25,-2.09112 c 2.8875,-1.15012 5.8739,-2.34026 6.63645,-2.64476 0.8728,-0.34853 1.21567,-0.0413 0.92547,0.8293 -0.25354,0.76062 -2.56494,2.03633 -5.13645,2.83492 -2.57151,0.79859 -4.67547,1.80182 -4.67547,2.2294 0,0.92772 6.56695,2.85797 9.75,2.86586 1.31386,0.003 2.25,0.61927 2.25,1.48058 0,2.16449 -6.73961,0.62518 -14.24107,-3.25262 -0.40759,-0.2107 -0.46384,1.00307 -0.125,2.69726 0.6665,3.33253 0.23838,3.83635 -1.49015,1.7536 z m -11.4771,-2.33991 c -1.16779,-1.16778 -0.71811,-4.04575 0.83333,-5.33333 1.75288,-1.45476 2.04666,0.0533 0.34238,1.75762 -0.87682,0.87682 -0.84712,1.53174 0.12245,2.7 1.22682,1.47823 0.0788,2.25266 -1.29816,0.87571 z m 9.34864,-21.08333 c 0.0119,-2.14294 0.22931,-2.41887 0.98469,-1.25 1.26441,1.95653 1.26441,4 0,4 -0.55,0 -0.99311,-1.2375 -0.98469,-2.75 z M 150.62936,92.728332 c -1.43895,-0.61834 -0.38698,-0.87915 3.75,-0.92971 3.21352,-0.0393 5.75,0.37084 5.75,0.92971 0,1.20482 -6.69622,1.20482 -9.5,0 z m 25.5,-4.46862 c 0,-3.79877 -0.26232,-4.38613 -1.75,-3.91836 -1.66667,0.52405 -1.66667,0.48159 0,-0.89163 1.22654,-1.01058 1.75458,-2.90449 1.76531,-6.33163 0.011,-3.52576 0.28572,-4.47133 0.98469,-3.38976 0.53316,0.825 0.97627,2.9001 0.98469,4.61133 0.0137,2.77673 0.28416,3.05993 2.51531,2.63342 1.37915,-0.26364 2.5,-0.008 2.5,0.56912 0,0.57587 -1.0125,1.19083 -2.25,1.36658 -1.80474,0.25631 -2.28243,1.01218 -2.41385,3.81955 -0.0901,1.925 -0.20262,4.0625 -0.25,4.75 -0.0474,0.6875 -0.53615,1.25 -1.08615,1.25 -0.55,0 -1,-2.01088 -1,-4.46862 z m 24.66667,2.80195 c -0.36667,-0.36666 -0.66667,-1.56141 -0.66667,-2.65498 0,-1.89648 -0.0886,-1.90817 -1.91753,-0.25298 -2.61817,2.36941 -6.49282,1.70601 -6.90288,-1.18189 -0.33307,-2.34574 4.56717,-8.24348 6.84924,-8.24348 0.65048,0 -0.21491,1.30554 -1.92307,2.90121 -3.43334,3.20722 -4.17407,6.44282 -1.35576,5.92211 0.9625,-0.17782 2.59168,-2.04664 3.62039,-4.15293 2.25172,-4.61038 3.1817,-3.88599 3.9536,3.07961 0.53663,4.8426 0.0228,6.2635 -1.65732,4.58333 z m 11.64624,-4.13805 c 1.53978,-1.60718 2.68709,-3.9405 2.68709,-5.46482 0,-1.63664 0.76949,-3.07191 2,-3.73046 1.12807,-0.60373 2,-0.66571 2,-0.14217 0,0.5105 -0.68605,1.19146 -1.52456,1.51322 -1.02319,0.39264 -1.33347,1.34643 -0.94348,2.90027 0.67811,2.70182 -2.76365,7.72868 -5.29163,7.72868 -1.23107,0 -0.97633,-0.66611 1.07258,-2.80472 z m 14.78754,-11.94528 c 0.0885,-7.71301 0.21094,-8.27799 1.03273,-4.76727 1.2092,5.16576 2.18006,6.02629 6.38977,5.6636 2.00183,-0.17247 3.47705,0.15722 3.47705,0.77705 0,0.59214 -1.0125,1.09093 -2.25,1.10842 -2.18629,0.0309 -2.19543,0.0731 -0.323,1.48967 1.05985,0.80183 1.61681,1.76805 1.2377,2.14716 -0.37911,0.37912 -1.9829,-0.2671 -3.56396,-1.43603 -3.18742,-2.35656 -4.10074,-2.03717 -4.10074,1.43407 0,1.28333 -0.45,2.33333 -1,2.33333 -0.59813,0 -0.95963,-3.51637 -0.89955,-8.75 z M 3.68076,70.541712 C 3.4418,69.819352 2.75886,60.453333 2.16312,49.728333 1.56737,39.003343 0.83695,28.602683 0.53997,26.615763 L 0,23.003173 l 5.06579,-0.672 c 7.34856,-0.97482 11.96512,1.93985 12.03177,7.59629 0.033,2.80435 -3.23687,5.93294 -9.51422,9.10302 l -3.04602,1.53825 0.7342,7.3298 c 1.07971,10.77927 1.00398,22.621449 -0.14922,23.334169 -0.55389,0.34231 -1.20258,0.0314 -1.44154,-0.69099 z m 6.51613,-35.971469 c 4.79938,-2.69741 5.54152,-4.54639 3.1277,-7.7924 -2.03935,-2.74242 -4.92485,-3.58515 -8.87818,-2.59293 -2.2914,0.5751 -2.42988,0.94176 -1.82523,4.83288 1.36414,8.77876 1.56861,8.92862 7.57571,5.55245 z m 61.932469,23.97735 C 34.71398,57.567313 26.00824,56.414003 48.12936,55.368143 c 29.669699,-1.40273 80.52846,-2.44068 81.34378,-1.66009 0.46408,0.44431 0.68358,1.63967 0.48779,2.65635 -0.67102,3.4843 -3.74369,3.6003 -57.831571,2.18319 z M 49.96095,49.759473 c -44.65227,-0.85718 -38.34533,-1.73729 32.168409,-4.489 20.625001,-0.80487 42.355281,-1.69659 48.289501,-1.98161 9.1602,-0.43997 10.87969,-0.2832 11.38675,1.03817 2.34178,6.10257 -12.18301,6.96169 -91.84466,5.43244 z m 1.15745,-18.28112 c -1.08986,-1.7875 -1.98325,-3.60098 -1.9853,-4.02994 -0.002,-0.42897 -1.30235,0.18017 -2.88955,1.35363 -3.40728,2.51911 -6.39299,1.95663 -8.75584,-1.64954 -1.45465,-2.22006 -1.45046,-2.63463 0.0497,-4.92415 1.20408,-1.83766 2.5197,-2.5 4.96579,-2.5 4.46153,0 10.59876,2.12448 8.42711,2.91715 -1.42862,0.52145 -1.38709,1.02652 0.39432,4.79504 1.09512,2.3167 2.84919,4.48453 3.89793,4.81739 2.51894,0.79948 2.44597,2.47042 -0.1079,2.47042 -1.19985,0 -2.81614,-1.31447 -3.99626,-3.25 z m -4.54574,-5.97251 c 2.29705,-3.27951 1.97082,-3.77749 -2.47468,-3.77749 -2.66097,0 -4.22706,0.5099 -4.60699,1.5 -1.69277,4.41127 4.24873,6.32208 7.08167,2.27749 z m -23.94221,-6.52749 c -0.97647,-7.56251 -2.17627,-14.82492 -2.66622,-16.1387 -1.14239,-3.06322996 -0.34145,-3.92638 1.11615,-1.20284 1.22568,2.29022 4.55701,17.59109 5.62625,25.84154 0.55592,4.28957 0.40771,5.25 -0.8102,5.25 -1.16243,0 -1.88144,-3.02708 -3.26598,-13.75 z m 51.485259,10.5 c -0.0231,-5.48922 -1.0191,-7.75 -3.41442,-7.75 -2.24836,0 -6.571929,3.31504 -6.571929,5.03895 0,2.62594 -1.88536,0.45424 -2.8273,-3.25668 -1.24654,-4.91101 -0.76512,-6.17659 0.93237,-2.45102 l 1.17995,2.58971 2.492349,-1.96048 c 2.6605,-2.09275 7.69032,-2.6308 8.73852,-0.93477 1.28778,2.08366 1.8032,11.97429 0.62401,11.97429 -0.62694,0 -1.14604,-1.4625 -1.15355,-3.25 z m 11.82115,-2.9386 c -0.29626,-4.03546 -0.37322,-4.12251 -2.10512,-2.38095 -2.56115,2.57543 -3.07365,1.38295 -0.9836,-2.28869 1.43035,-2.51273 2.47066,-3.1537 5.28122,-3.25392 4.54175,-0.16196 6.31046,0.0974 7.32914,1.07487 1.12856,1.08286 2.88467,9.15681 2.15118,9.8903 -0.93911,0.9391 -2.44828,-2.1102 -2.46501,-4.98057 -0.0196,-3.36265 -2.15657,-5.12608 -5.26615,-4.34562 -2.26439,0.56832 -2.40766,0.97179 -1.96842,5.54306 0.30071,3.12955 0.083,4.93012 -0.59601,4.93012 -0.58836,0 -1.20811,-1.88487 -1.37723,-4.1886 z m 23.928661,2.9386 c -5.47374,-4.1566 -3.19655,-13.75 3.26384,-13.75 2.68709,0 6,2.64677 6,4.79355 0,1.64159 -3.38417,3.20645 -6.93426,3.20645 -3.52253,0 -3.86091,0.9704 -1.18333,3.39358 1.28783,1.16547 2.70918,1.49604 4.5,1.04657 2.83088,-0.7105 3.70107,0.9301 1.0358,1.95286 -2.47668,0.95039 -4.88948,0.71821 -6.68205,-0.64301 z m 6.83294,-8.86181 c 0.37792,-0.61149 0.067,-1.5046 -0.69098,-1.98468 -1.39596,-0.88419 -5.87812,-1.25424 -5.87812,-0.4853 0,0.23002 -0.27314,1.13002 -0.60699,2 -0.48321,1.25922 0.11654,1.58179 2.94098,1.58179 1.95139,0 3.85719,-0.50032 4.23511,-1.11181 z m 10.4309,3.11181 c -2.04315,-3.81767 1.51809,-7.6806 8.11972,-8.80759 4.17532,-0.71278 4.36011,-0.89852 5.07807,-5.10415 0.8408,-4.92525 1.21965,-5.56634 2.73568,-4.62939 0.58659,0.36254 1.09335,2.9951 1.12614,5.85014 0.0328,2.85504 0.41145,7.32849 0.84147,9.94099 0.58,3.5237 0.46315,4.75 -0.45263,4.75 -1.49144,0 -2.43777,-2.22635 -2.47886,-5.83179 -0.0284,-2.49186 -0.10352,-2.53603 -1.13657,-0.66821 -2.55637,4.62206 -5.14855,6.5 -8.97215,6.5 -2.76705,0 -4.07951,-0.54001 -4.86087,-2 z m 7.4552,-0.62118 c 1.45396,-0.55794 4.5448,-5.27606 4.5448,-6.93757 0,-0.96439 -5.13971,0.46115 -7.75,2.14952 -2.80847,1.81656 -3.02884,5.40923 -0.33179,5.40923 1.05502,0 2.64666,-0.27954 3.53699,-0.62118 z"
     style="fill:#605f5c"
     sodipodi:nodetypes="ssssssssssssssscsscsscsscsscscscssscssssscsssssssssssssssscscsssssscsccsscsssscsssssssssscscssssssssssscsssssssssssssscsssssscsscsscssscssccsssssssssssscsssssssssssssscssscssssssscscccsssssccssssssscsssssssssssssscssssscssssscssscssscssccsssssscccscsscssscssssssscsssscssssscssssssssssscssccscssssscsssssscssssscssssssssscsscssssssscscsssscsscssssscsscsssscsssssssssssssscsscscscsccsssssssssssssssscsssssssssssssssssssssssscsssssssscssssssssssssssscssssssscssssssscsssc" />
  <path
     inkscape:connector-curvature="0"
     id="path4182"
     d="m 120.65243,405.75065 c -7.425,-1.03392 -18.225,-2.17048 -24.000001,-2.52571 -13.30998,-0.8187 -29.30067,-3.05196 -31.930509,-4.45941 -2.58442,-1.38314 -4.06797,-4.16674 -5.88239,-11.03719 -1.17575,-4.45206 -1.60345,-20.55219 -2.24473,-84.5 -1.19468,-119.1314 -1.75167,-150.83676 -2.88109,-164 -1.17054,-13.64233 -1.21042,-47.483958 -0.0613,-51.999998 0.60508,-2.37793 0.79796,-1.65218 0.9302,3.5 0.58924,22.958138 1.30757,37.655598 2.59901,53.177578 0.86809,10.43365 1.48189,30.30803 1.49789,48.5 0.0149,16.95233 0.48662,35.09742 1.04827,40.32242 0.56165,5.225 1.19898,42.86598 1.4163,83.64663 0.44013,82.59473 0.29068,80.76662 6.682419,81.74158 8.52496,1.30034 13.02329,1.70731 29.09051,2.63185 9.479471,0.54546 19.935401,1.48617 23.235401,2.09046 10.6377,1.94797 23.86352,2.67002 25.30158,1.38131 1.04381,-0.93542 1.0806,-2.83243 0.18578,-9.57912 -0.65411,-4.93179 -1.49287,-39.85914 -2.02713,-84.41271 -0.91619,-76.40536 -1.85139,-94.57863 -4.96611,-96.50363 -1.26512,-0.78189 -28.67603,-1.9406 -49.494121,-2.09221 -7.7,-0.0561 -16.475,-0.44409 -19.5,-0.86226 -7.110689,-0.98296 39.913841,-1.10905 57.000001,-0.15283 6.875,0.38475 12.6464,0.60821 12.82533,0.49658 0.85217,-0.53166 -5.02331,-51.80768 -6.89747,-60.19499 -2.16735,-9.69942 -4.15583,-33.85722 -4.28763,-52.089838 -0.13304,-18.40454 -0.24277,-19.4392 -2.14023,-20.17972 -3.08703,-1.20476 -24.6654,-1.05367 -41.670451,0.29179 -18.9905,1.50254 -27.797689,1.59331 -27.857349,0.28711 -0.0877,-1.92024 17.719649,-3.34752 42.712699,-3.42347 24.436511,-0.0743 29.795381,0.46451 31.463281,3.16323 0.37889,0.61306 0.71145,8.30351 0.73902,17.08989 0.0527,16.793148 1.96926,38.388378 5.11821,57.670348 3.05737,18.72113 7.3442,60.31908 8.9657,87 1.06983,17.60354 1.68388,164.67835 0.69168,165.67054 -1.45212,1.45212 -12.60169,1.17049 -25.66279,-0.64823 z M 95.152039,377.34243 c -3.95894,-1.72539 -5.61162,-3.84873 -5.7108,-7.33719 -0.25396,-8.93227 12.244781,-15.6477 23.211191,-12.47111 3.18384,0.92225 2.84061,1.02198 -3.79966,1.10402 -8.02151,0.0991 -11.834761,1.53868 -15.112041,5.70507 -2.98063,3.78925 -2.72831,7.91967 0.61772,10.11207 2.10022,1.37611 4.78669,1.77305 12.000001,1.77305 8.86978,0 11.17242,0.5652 7.71219,1.89301 -2.84968,1.09353 -15.850411,0.55825 -18.918601,-0.77892 z M 181.99308,364.283 c 0.36264,-0.94503 0.70421,-7.41893 0.75903,-14.38645 0.0621,-7.89555 0.40132,-11.72635 0.90032,-10.16821 0.44035,1.375 0.8455,4.01496 0.90032,5.86658 0.10641,3.59377 0.25693,3.62721 7.00605,1.55663 1.70604,-0.5234 2.19865,-0.40215 1.69262,0.41663 -0.39257,0.63518 -2.46999,1.43571 -4.6165,1.77895 l -3.90273,0.62407 -0.28988,7.54832 c -0.20777,5.41008 -0.68911,7.68052 -1.69923,8.01502 -0.9895,0.32767 -1.21293,-0.0452 -0.75,-1.25154 z m 12.6635,-3.04965 c -0.99988,-1.20479 -0.92187,-1.98163 0.40185,-4.00189 2.42516,-3.70127 9.0122,-7.74355 11.76411,-7.21932 2.12699,0.40518 2.09407,0.4557 -0.378,0.58002 -1.6461,0.0828 -4.29286,1.64392 -6.75,3.98134 -5.802,5.51931 -5.32718,7.35167 1.20789,4.6613 1.06019,-0.43646 1.75,-0.27433 1.75,0.4113 0,1.02781 -3.96101,3.08224 -5.94265,3.08224 -0.44686,0 -1.37079,-0.67275 -2.0532,-1.49499 z m -31.00415,-0.50501 c -1.77776,-0.56934 -0.4055,-0.82944 4.75,-0.90032 4.23312,-0.0582 7.25,0.31644 7.25,0.90032 0,1.16714 -8.35559,1.16714 -12,0 z m 43.25218,-2.5 c 0.0111,-2.2 0.21589,-2.98225 0.45508,-1.73834 0.23919,1.24391 0.23011,3.04391 -0.0202,4 -0.25029,0.95609 -0.446,-0.0617 -0.4349,-2.26166 z m 9.74782,1.97525 c 0,-0.28861 1.17074,-0.96987 2.60166,-1.5139 1.95502,-0.7433 2.41696,-1.42064 1.85857,-2.72525 -1.45585,-3.40135 -1.64219,-7.00561 -0.40184,-7.77219 0.84687,-0.52339 0.99901,-0.3658 0.47123,0.48816 -0.42866,0.6936 -0.18365,3.06619 0.54447,5.27243 1.20628,3.65506 1.15599,4.1341 -0.56624,5.39342 -1.87133,1.36835 -4.50785,1.86978 -4.50785,0.85733 z m 13.23132,-3.97525 c -0.0176,-2.75 0.36219,-6.125 0.84392,-7.5 0.79819,-2.27825 0.84906,-2.21172 0.57351,0.75 -0.34205,3.67661 -0.0889,3.79539 3.94761,1.85211 4.25115,-2.04662 7.40364,-2.85533 7.40364,-1.89926 0,0.4607 -2.5875,1.72852 -5.75,2.81739 -5.26371,1.81233 -5.8023,2.27576 -6.36836,5.47976 -0.54778,3.10052 -0.62201,2.92931 -0.65032,-1.5 z m 6.65835,-0.75 c -1.17436,-2.23794 -1.16919,-2.23979 0.96482,-0.34501 2.38354,2.11633 2.60133,2.59501 1.18069,2.59501 -0.53065,0 -1.49612,-1.0125 -2.14551,-2.25 z M 131.15243,338.64548 C 121.2336,337.557 89.346639,335.83827 75.152429,335.62705 l -11.999999,-0.17857 9.999999,-0.91127 c 12.03725,-1.09691 40.043091,-0.24093 56.811031,1.73639 6.70394,0.79055 12.30147,1.44127 12.43897,1.44605 0.1375,0.005 0.25,0.45869 0.25,1.00869 0,1.08314 -0.93631,1.07639 -11.5,-0.0829 z M 87.652429,286.97047 c 0,-0.56075 1.6875,-1.33242 3.75,-1.71481 4.24547,-0.78713 13.250001,-5.37569 13.250001,-6.75199 0,-2.86252 -2.40959,-4.71856 -7.496901,-5.77469 -3.0267,-0.62834 -5.48555,-1.67303 -5.4641,-2.32154 0.0215,-0.6485 2.04645,-2.65586 4.5,-4.46079 2.45355,-1.80493 4.461001,-4.00539 4.461001,-4.8899 0,-1.353 -0.912521,-1.52358 -5.750001,-1.07489 -5.44562,0.5051 -5.59119,0.46195 -2.75,-0.81499 9.835411,-4.42043 13.500611,2.11754 4.8867,8.71687 l -3.46602,2.6554 4.20012,0.70961 c 4.262921,0.72021 8.879201,4.24468 8.879201,6.77915 0,1.81223 -2.50943,3.99522 -7.643871,6.64952 -4.81225,2.48775 -11.35613,3.8091 -11.35613,2.29305 z m -0.33333,-5.9088 c -0.92317,-0.92317 -0.8436,-20.33442 0.0833,-20.32873 0.4125,0.003 0.90285,4.72753 1.08966,10.5 0.33084,10.22249 0.21248,11.21421 -1.17299,9.82873 z m 106.000001,-6 c -0.86676,-0.86675 -0.68351,-14.28069 0.29143,-21.33333 l 0.7603,-5.5 0.1408,5.37917 0.1408,5.37916 6,-0.67882 c 3.9537,-0.44731 6,-0.32084 6,0.37083 0,0.61751 -2.49714,1.04966 -6.0653,1.04966 l -6.06529,0 0.21936,7.5126 c 0.21577,7.38968 -0.10256,9.14028 -1.4221,7.82073 z m 38.14477,-6.37229 c 2.52619,-2.3535 2.53215,-2.38126 1.13339,-5.27678 -1.01928,-2.10998 -1.00228,-2.11825 0.5,-0.24313 0.85535,1.06762 1.55517,2.46038 1.55517,3.09501 0,1.30056 -3.20117,4.46386 -4.5173,4.46386 -0.4729,0 0.12503,-0.91753 1.32874,-2.03896 z m -13.55926,-2.46104 c 0.0111,-2.2 0.21589,-2.98225 0.45508,-1.73834 0.23919,1.24391 0.23011,3.04391 -0.0202,4 -0.25029,0.95609 -0.446,-0.0617 -0.4349,-2.26166 z m -8.50218,1.44366 c -4.4515,-2.65319 -0.31415,-9.0454 5.72251,-8.8413 l 3.02749,0.10236 -3.36061,0.79396 c -7.07229,1.67087 -8.47864,7.60997 -1.61218,6.80835 2.16717,-0.253 3.37543,-0.008 3.16273,0.64178 -0.47513,1.45115 -4.81614,1.76068 -6.93994,0.49485 z m -39.48625,-1.66124 c 1.52006,-0.22986 3.77006,-0.22371 5,0.0136 1.22994,0.23736 -0.0138,0.42542 -2.76375,0.41792 -2.75,-0.008 -3.75631,-0.20172 -2.23625,-0.43157 z m 79.22626,-2.29285 c -3.59094,-3.74813 -6.49001,-3.96682 -6.49001,-0.48957 0,1.375 -0.45,2.5 -1,2.5 -0.55,0 -1,-1.092 -1,-2.42668 0,-1.47023 -0.68974,-2.60692 -1.75,-2.88399 -1.66667,-0.43555 -1.66667,-0.46285 0,-0.57333 1.33194,-0.0883 1.75366,-1.01184 1.76531,-3.866 0.0114,-2.78938 0.26364,-3.36575 0.98469,-2.25 0.53316,0.825 0.97627,2.56875 0.98469,3.875 0.0162,2.51608 -0.19172,2.50073 8.01531,0.59159 2.30092,-0.53525 2.26521,-0.44671 -0.44843,1.11183 l -2.94844,1.6934 2.90936,2.31983 c 1.60014,1.27592 2.66913,2.56006 2.37553,2.85367 -0.2936,0.2936 -1.82271,-0.81149 -3.39801,-2.45575 z m -56.8558,-25.83143 c -0.47618,-0.73802 -0.56504,-5.67417 -0.19745,-10.96922 0.68101,-9.80984 1.56324,-13.59992 1.56324,-6.71568 l 0,3.80657 5.51534,-0.56924 c 3.2919,-0.33975 5.2838,-0.19458 4.94098,0.3601 -0.31589,0.51113 -2.77808,0.92933 -5.47153,0.92933 l -4.89717,0 -0.29381,7.25 c -0.18423,4.54606 -0.61671,6.74954 -1.1596,5.90814 z m 14.30246,-5.50239 c -3.36833,-1.6793 -3.06925,-4.6742 0.68578,-6.86726 4.13838,-2.41694 5.88955,-1.55067 7.64511,3.7819 1.5647,4.75285 0.56951,6.26516 -1.10528,1.67961 -0.60776,-1.66406 -1.03556,-2.07284 -1.08333,-1.03518 -0.12092,2.62647 -3.26442,3.87569 -6.14228,2.44093 z m 4.45634,-2.23754 c 0.85513,-2.22844 0.75476,-5.41821 -0.1705,-5.41821 -1.54927,0 -5.22251,3.14633 -5.22251,4.47337 0,2.54756 4.477,3.33192 5.39301,0.94484 z m 13.10699,2.58179 c 0.33992,-0.55 1.29606,-1 2.12476,-1 0.8287,0 2.37978,-0.46724 3.44684,-1.03832 1.82919,-0.97895 1.84916,-1.21424 0.34917,-4.1149 -1.25489,-2.42669 -1.33076,-3.31636 -0.35916,-4.21168 0.92731,-0.85452 1.06167,-0.8331 0.54353,0.0866 -0.37854,0.67197 0.0156,2.29606 0.87599,3.6091 2.02031,3.08339 1.12548,5.26204 -2.71053,6.59927 -3.83061,1.33536 -5.0652,1.35556 -4.2706,0.0699 z m 15.38158,-4.25 c -0.0651,-2.3375 0.007,-4.7 0.16101,-5.25 0.15368,-0.55 0.59685,-3.025 0.9848,-5.5 l 0.70538,-4.5 0.13362,4.75 c 0.14471,5.1445 0.93942,5.64762 5.13361,3.25 2.91357,-1.66555 4,-1.83821 4,-0.6357 0,0.47537 -1.6875,1.52821 -3.75,2.33964 l -3.75,1.47533 4.75,2.35963 c 2.6125,1.2978 4.75,2.71996 4.75,3.16037 0,1.31795 -0.92616,0.94761 -5.5,-2.19927 -2.39819,-1.65 -4.61677,-3 -4.93018,-3 -0.3134,0 -0.56982,1.8 -0.56982,4 0,5.37438 -1.96818,5.14211 -2.11842,-0.25 z m -69.63158,1.53375 c 1.5125,-0.22913 3.9875,-0.22913 5.5,0 1.5125,0.22912 0.275,0.41659 -2.75,0.41659 -3.025,0 -4.2625,-0.18747 -2.75,-0.41659 z M 98.189989,153.54172 c -0.24657,-0.72236 -1.11208,-3.94457 -1.92336,-7.16047 -0.81127,-3.2159 -1.65442,-6.02646 -1.87365,-6.24569 -0.21924,-0.21924 -2.41219,-0.6746 -4.87323,-1.01193 l -4.47462,-0.61331 -2.82502,6.64701 c -1.55376,3.65585 -3.00648,6.46555 -3.22826,6.24376 -0.58705,-0.58704 7.39991,-22.62597 9.18954,-25.35729 2.44878,-3.73732 4.15393,-2.82485 5.48385,2.93454 0.66675,2.8875 1.87259,6.30154 2.67964,7.58676 0.80705,1.28522 1.24227,2.56185 0.96717,2.83695 -0.2751,0.2751 0.0897,2.59856 0.81067,5.16324 2.177081,7.74443 2.381591,9.13656 1.42877,9.72544 -0.50225,0.3104 -1.11493,-0.0266 -1.3615,-0.74901 z m -4.86088,-18.06338 c -0.29707,-1.2375 -0.85224,-3.97111 -1.23371,-6.0747 -0.8296,-4.57479 -1.79145,-3.89565 -4.47128,3.15709 l -1.96354,5.16761 4.10433,0 c 3.74972,0 4.05767,-0.1944 3.5642,-2.25 z m 89.155381,-6.5 c -0.18263,-3.7125 -0.15366,-8.1 0.0644,-9.75 0.39171,-2.96424 0.40469,-2.9702 1.08852,-0.5 0.72437,2.61664 0.83761,2.65125 5.26503,1.60916 1.5125,-0.35599 2.75,-0.22824 2.75,0.28389 0,0.51213 -1.6875,1.21524 -3.75,1.56246 l -3.75,0.63131 0.33533,6.45659 c 0.20123,3.87457 -0.0659,6.45659 -0.66794,6.45659 -0.5518,0 -1.1527,-3.0375 -1.33533,-6.75 z m 24.91794,6.17808 c -0.4125,-0.41878 -0.75,-1.83693 -0.75,-3.15145 0,-2.27008 -0.11155,-2.31191 -2.22251,-0.83333 -2.50506,1.75461 -5.77749,2.06993 -5.77749,0.5567 0,-0.55 0.9,-1 2,-1 1.1,0 2.945,-0.945 4.1,-2.1 2.70634,-2.70634 4.13655,-1.33585 3.71822,3.56297 -0.17502,2.04959 -0.65572,3.38389 -1.06822,2.96511 z m -50.75,-2.34974 c -3.02215,-0.61966 -2.54431,-0.78067 3.5,-1.1793 3.85,-0.25391 7.1875,-0.33507 7.41667,-0.18035 1.82857,1.23454 -6.47994,2.26935 -10.91667,1.35965 z m 61,0.1409 c 0,-0.88552 6.14876,-3.40381 6.77699,-2.77559 0.39823,0.39824 -5.13177,3.55635 -6.22733,3.55635 -0.30231,0 -0.54966,-0.35134 -0.54966,-0.78076 z m -22.96086,-4.44619 c -0.0471,-3.2835 2.7691,-5.31454 8.46086,-6.1019 3.92689,-0.54322 3.91168,-0.52551 -0.83251,0.96919 -3.78529,1.19258 -5.13121,2.20916 -6.21086,4.69109 l -1.37835,3.16857 -0.0391,-2.72695 z m 38.20141,-0.75948 c -0.74618,-1.19481 -1.1882,-5.08032 -1.10918,-9.75 l 0.13138,-7.76357 1.04964,5.5 c 0.5773,3.025 1.6093,6.06075 2.29332,6.74612 1.77149,1.77497 6.04401,3.25388 9.40037,3.25388 1.58174,0 3.154,0.45 3.49392,1 1.16916,1.89174 -5.13853,1.0114 -9.8524,-1.37507 l -4.69135,-2.37506 0.63317,3.37506 c 0.72603,3.87011 0.40636,4.19921 -1.34887,1.38864 z m -11.89547,-2.5567 c -0.90001,-2.34537 0.0715,-2.62076 1.45125,-0.41139 0.77256,1.23707 0.83892,1.95452 0.18076,1.95452 -0.57192,0 -1.30633,-0.69441 -1.63201,-1.54313 z m 19.15492,-5.43947 c 2.2,-1.08072 4.675,-1.94004 5.5,-1.9096 1.68267,0.0621 -3.15176,2.31338 -7,3.25975 -1.39695,0.34354 -0.73513,-0.25217 1.5,-1.35015 z m -85,-27.017398 c -0.36155,-0.585 0.67595,-1 2.5,-1 1.82405,0 2.86155,0.415 2.5,1 -0.33992,0.55 -1.46492,1 -2.5,1 -1.03508,0 -2.16008,-0.45 -2.5,-1 z m 22.21832,-0.70577 c -1.03694,-1.59951 -0.65747,-13.29423 0.43136,-13.29423 0.46768,0 0.85032,0.72748 0.85032,1.61663 0,1.1243 0.60908,1.45735 2,1.09362 1.1,-0.28766 2,-0.11514 2,0.38337 0,0.49851 -0.87648,0.90638 -1.94774,0.90638 -1.64461,0 -1.99478,0.81708 -2.25,5.25 -0.17175,2.9831 -0.63978,4.72936 -1.08394,4.04423 z m 23.94835,-1.9609 c -0.36667,-0.36666 -0.66667,-1.5701 -0.66667,-2.67431 0,-1.93908 -0.0823,-1.9303 -2.41079,0.25717 -1.32593,1.24565 -3.23843,2.107 -4.25,1.9141 -3.1179,-0.59455 -2.70182,-4.12359 0.86715,-7.35487 2.53582,-2.29588 2.80737,-2.40446 1.18902,-0.47542 -2.64,3.14682 -3.58694,5.76357 -2.36009,6.52181 1.23566,0.76368 5.96471,-3.9746 5.96471,-5.97636 0,-0.85 0.63157,-1.54545 1.40349,-1.54545 0.97134,0 1.51018,1.53972 1.75,5.00062 0.33112,4.77853 -0.0194,5.8001 -1.48682,4.33271 z m 10.33333,-0.86471 c 0,-0.25774 0.9,-1.36862 2,-2.46862 1.1,-1.1 2,-3.0699 2,-4.37756 0,-1.30765 0.7875,-2.97345 1.75,-3.70177 1.48877,-1.12655 1.56341,-1.11497 0.5,0.0776 -0.6875,0.77097 -1.25,2.46635 -1.25,3.76751 0,2.98967 -1.49598,5.82687 -3.47222,6.58523 -0.84028,0.3224 -1.52778,0.37534 -1.52778,0.11761 z m 16.115,-13.71862 c 0.0987,-7.08032 0.2323,-7.68288 0.94237,-4.25 1.16289,5.62212 1.13133,12.5 -0.0574,12.5 -0.59515,0 -0.95344,-3.34 -0.885,-8.25 z m 5.635,3.76636 c -1.5125,-1.33123 -2.74767,-2.55451 -2.74482,-2.71839 0.003,-0.16389 1.91535,-0.36143 4.25,-0.439 3.9346,-0.13072 4.05035,-0.0641 1.58379,0.91176 l -2.66103,1.05277 2.16103,1.80498 c 1.18857,0.99274 1.71103,1.80573 1.16103,1.80665 -0.55,9.2e-4 -2.2375,-1.08753 -3.75,-2.41877 z M 4.22857,69.541722 C 4.00321,68.819362 3.54703,62.153343 3.21482,54.728343 c -0.3322,-7.425 -0.79524,-17.55 -1.02898,-22.49999 l -0.42499,-9 1.28044,6.75131 c 0.70424,3.71323 1.50631,6.97719 1.78237,7.25325 0.78773,0.78773 9.03173,-3.87916 10.24155,-5.7977 0.81656,-1.29491 0.70581,-2.40658 -0.44487,-4.46549 -1.21752,-2.17852 -2.44943,-2.84733 -6,-3.25745 -4.13117,-0.47717 -4.24562,-0.56381 -1.51852,-1.14944 1.62216,-0.34835 3.96112,-0.24871 5.1977,0.22144 3.16227,1.20229 5.69951,5.42698 4.9803,8.29256 -0.60222,2.39941 -6.24108,6.75935 -10.48362,8.10588 -1.96533,0.62377 -2.24636,1.23297 -1.79567,3.89257 1.32461,7.81674 1.8442,26.416179 0.75673,27.088269 -0.61543,0.38036 -1.30334,0.10053 -1.52869,-0.62183 z M 60.40793,57.741003 c -12.50948,-0.36759 -23.04698,-0.97081 -23.41667,-1.3405 -0.36969,-0.36969 1.76534,-0.68068 4.7445,-0.6911 7.19284,-0.0251 41.642539,-1.00741 65.91667,-1.87947 10.725,-0.3853 20.08629,-0.5085 20.80287,-0.27379 0.71658,0.23472 1.16658,1.38198 1,2.54948 -0.29824,2.09028 -0.65434,2.1241 -23.30287,2.21321 -12.650001,0.0498 -33.235031,-0.21025 -45.7445,-0.57783 z m -33.2555,-8.93567 c -3.37502,-0.77218 7.97647,-1.40485 64.499999,-3.59485 50.195861,-1.94483 50.000001,-1.94646 50.000001,0.41521 0,3.52006 -9.20654,4.11093 -62.081911,3.98434 -27.179949,-0.0651 -50.768089,-0.42719 -52.418089,-0.8047 z m 25.82333,-16.32698 c -1.11392,-1.2375 -2.32674,-3.09876 -2.69517,-4.13612 -0.60086,-1.69186 -0.84796,-1.73213 -2.39901,-0.39103 -2.63131,2.27513 -5.87191,2.71567 -8.16446,1.10991 -2.29701,-1.6089 -2.78633,-6.21112 -0.86469,-8.13276 1.40206,-1.40206 6.42879,-1.46788 9.3,-0.12177 1.41897,0.66525 0.63833,0.77503 -2.68707,0.37787 -3.9853,-0.47596 -4.84623,-0.26241 -5.75,1.42632 -1.36928,2.55852 -1.35545,2.6822 0.5085,4.54615 2.22115,2.22115 4.10703,1.95644 6.61552,-0.92857 1.19555,-1.375 2.45217,-2.5 2.7925,-2.5 0.34032,0 1.19502,1.59357 1.89931,3.54127 0.7043,1.94769 2.1447,4.08094 3.20089,4.74054 1.05619,0.65961 1.92035,1.54103 1.92035,1.95873 0,1.42932 -1.65082,0.76007 -3.67667,-1.49054 z m -27.78492,-1 c -0.21935,-0.6875 -1.12194,-6.875 -2.00574,-13.75 -0.88381,-6.87501 -1.83671,-13.40001 -2.11755,-14.50001 -0.42547,-1.6665 -0.34211,-1.73409 0.4999,-0.40532 1.00668,1.58862 6.08498,25.19087 6.08498,28.28097 0,1.90656 -1.88144,2.19269 -2.46159,0.37436 z m 49.446279,-4 c -0.02,-5.55967 -1.07746,-7.16484 -4.10984,-6.23874 -3.03486,0.92687 -5.874849,3.41342 -5.874849,5.14372 0,0.73976 -0.45,1.34502 -1,1.34502 -0.55,0 -1,-0.8632 -1,-1.91822 0,-1.05501 -0.23892,-2.74251 -0.53093,-3.75 -0.33057,-1.14051 -0.0891,-0.99358 0.63994,0.38936 l 1.17087,2.22114 2.936779,-2.47114 c 4.45369,-3.74753 7.45703,-3.30761 8.73076,1.27886 1.31942,4.75101 1.34172,8.25 0.0526,8.25 -0.55,0 -1.00689,-1.9125 -1.01531,-4.25 z m 35.087891,0.61514 c -2.62355,-3.3353 -2.65469,-7.78303 -0.0726,-10.36514 2.57068,-2.57068 5.45839,-2.54161 8.08136,0.0814 1.98262,1.98261 1.99898,2.17238 0.34501,4 -1.8498,2.044 -4.42637,2.57874 -4.42637,0.91864 0,-0.55 0.933,-1 2.07332,-1 1.43632,0 1.96978,-0.53767 1.73631,-1.75 -0.24411,-1.26758 -1.29809,-1.75 -3.82333,-1.75 -3.28498,0 -3.50379,0.20936 -3.78925,3.62562 -0.37521,4.49039 1.99954,7.29283 5.44671,6.42765 2.61825,-0.65714 3.26674,0.88336 0.77445,1.83974 -2.84646,1.09229 -4.24215,0.64627 -6.34563,-2.02787 z m -23.072581,-1.86514 c 0,-2.44445 -0.45238,-3.5 -1.5,-3.5 -0.825,0 -1.5,0.525 -1.5,1.16666 0,0.64167 -0.26625,0.90042 -0.59166,0.57501 -0.97753,-0.97753 1.23254,-4.06149 3.22927,-4.50619 6.97304,-1.55298 8.18361,-1.43818 9.65254,0.91538 1.79404,2.87449 2.99095,8.84914 1.77275,8.84914 -0.48791,0 -1.18684,-1.7741 -1.55317,-3.94244 -0.77495,-4.58686 -2.47647,-6.34196 -5.70469,-5.88433 -2.04809,0.29034 -2.29803,0.85627 -2.2422,5.07677 0.0346,2.6125 -0.30294,4.75 -0.75,4.75 -0.44706,0 -0.81284,-1.575 -0.81284,-3.5 z m 42.200001,-1.7 c -3.45055,-3.45056 0.0568,-8.22674 6.85227,-9.33133 3.44531,-0.56002 3.44493,-0.55935 -0.53904,0.94902 -6.80874,2.57785 -8.42042,6.82702 -2.80185,7.38704 4.19015,0.41764 6.73055,-3.04728 8.28871,-11.30519 0.67708,-3.5884 1.57221,-6.73521 1.98918,-6.99291 0.71957,-0.44473 1.00356,1.18131 2.57495,14.74337 0.80887,6.98107 -1.09504,8.06153 -2.12325,1.20493 l -0.68157,-4.54506 -1.4097,2.79506 c -2.81708,5.58554 -9.04677,8.198 -12.1497,5.09507 z"
     style="fill:#0c0b09"
     sodipodi:nodetypes="csssssssssssssssssssssssssssssssssccssssssssscsssssscsscssscssssssssscscccsssscssssssssssssssscscsscsccsssscssssscssssccsccsscccssscsssssssscscccsscsscscccccssssssssssscscsssscscscsssssssssssscssssccsccccscsssscssssscsssscssscscsssssccssscssccsssscssccssssssssssssscsscssscccsscssssscsssssssssssssssssssssssssssssssssssssscscscssccscsscssscsscssssssssssscsssscssssssssscssssssssssssssssssscsssssccssscccssssssssssccssssssssscssssssscsscss" />
</svg>
